<mxfile host="Electron" agent="Mozilla/5.0 (Windows NT 10.0; Win64; x64) AppleWebKit/537.36 (KHTML, like Gecko) draw.io/24.7.17 Chrome/128.0.6613.36 Electron/32.0.1 Safari/537.36" version="24.7.17">
  <diagram name="Page-1" id="B9TQshfL6fswv9sQUvmK">
    <mxGraphModel dx="1591" dy="1878" grid="1" gridSize="10" guides="1" tooltips="1" connect="1" arrows="1" fold="1" page="1" pageScale="1" pageWidth="827" pageHeight="1169" math="0" shadow="0">
      <root>
        <mxCell id="0" />
        <mxCell id="1" parent="0" />
        <mxCell id="KOtAGe8Z_knaCR6Rn8nn-4" value="" style="group" vertex="1" connectable="0" parent="1">
          <mxGeometry x="840" y="200" width="60" height="90" as="geometry" />
        </mxCell>
        <mxCell id="KOtAGe8Z_knaCR6Rn8nn-1" value="Actor" style="shape=umlActor;verticalLabelPosition=bottom;verticalAlign=top;html=1;outlineConnect=0;" vertex="1" parent="KOtAGe8Z_knaCR6Rn8nn-4">
          <mxGeometry x="15" y="30" width="30" height="60" as="geometry" />
        </mxCell>
        <mxCell id="KOtAGe8Z_knaCR6Rn8nn-3" value="Admin" style="text;html=1;align=center;verticalAlign=middle;whiteSpace=wrap;rounded=0;" vertex="1" parent="KOtAGe8Z_knaCR6Rn8nn-4">
          <mxGeometry width="60" height="30" as="geometry" />
        </mxCell>
        <mxCell id="KOtAGe8Z_knaCR6Rn8nn-9" value="RH" style="group" vertex="1" connectable="0" parent="1">
          <mxGeometry x="35" y="400" width="60" height="100" as="geometry" />
        </mxCell>
        <mxCell id="KOtAGe8Z_knaCR6Rn8nn-5" value="Actor" style="shape=umlActor;verticalLabelPosition=bottom;verticalAlign=top;html=1;outlineConnect=0;" vertex="1" parent="KOtAGe8Z_knaCR6Rn8nn-9">
          <mxGeometry x="15" y="40" width="30" height="60" as="geometry" />
        </mxCell>
        <mxCell id="KOtAGe8Z_knaCR6Rn8nn-11" value="" style="group" vertex="1" connectable="0" parent="1">
          <mxGeometry x="35" y="230" width="60" height="90" as="geometry" />
        </mxCell>
        <mxCell id="KOtAGe8Z_knaCR6Rn8nn-7" value="Actor" style="shape=umlActor;verticalLabelPosition=bottom;verticalAlign=top;html=1;outlineConnect=0;" vertex="1" parent="KOtAGe8Z_knaCR6Rn8nn-11">
          <mxGeometry x="15" y="30" width="30" height="60" as="geometry" />
        </mxCell>
        <mxCell id="KOtAGe8Z_knaCR6Rn8nn-8" value="chef service" style="text;html=1;align=center;verticalAlign=middle;whiteSpace=wrap;rounded=0;" vertex="1" parent="KOtAGe8Z_knaCR6Rn8nn-11">
          <mxGeometry width="60" height="30" as="geometry" />
        </mxCell>
        <mxCell id="KOtAGe8Z_knaCR6Rn8nn-13" value="" style="group" vertex="1" connectable="0" parent="1">
          <mxGeometry x="40" y="30" width="60" height="90" as="geometry" />
        </mxCell>
        <mxCell id="KOtAGe8Z_knaCR6Rn8nn-14" value="Actor" style="shape=umlActor;verticalLabelPosition=bottom;verticalAlign=top;html=1;outlineConnect=0;" vertex="1" parent="KOtAGe8Z_knaCR6Rn8nn-13">
          <mxGeometry x="15" y="30" width="30" height="60" as="geometry" />
        </mxCell>
        <mxCell id="KOtAGe8Z_knaCR6Rn8nn-15" value="Employé" style="text;html=1;align=center;verticalAlign=middle;whiteSpace=wrap;rounded=0;" vertex="1" parent="KOtAGe8Z_knaCR6Rn8nn-13">
          <mxGeometry width="60" height="30" as="geometry" />
        </mxCell>
        <mxCell id="KOtAGe8Z_knaCR6Rn8nn-16" value="" style="rounded=0;whiteSpace=wrap;html=1;" vertex="1" parent="1">
          <mxGeometry x="110" y="-20" width="720" height="590" as="geometry" />
        </mxCell>
        <mxCell id="KOtAGe8Z_knaCR6Rn8nn-17" value="&lt;b&gt;&lt;u&gt;&lt;font style=&quot;font-size: 14px;&quot;&gt;Agenda Electronique&lt;/font&gt;&lt;/u&gt;&lt;/b&gt;" style="text;html=1;align=center;verticalAlign=middle;whiteSpace=wrap;rounded=0;strokeColor=none;" vertex="1" parent="1">
          <mxGeometry x="70" y="-20" width="270" height="30" as="geometry" />
        </mxCell>
        <mxCell id="KOtAGe8Z_knaCR6Rn8nn-19" value="Saisir les Activités" style="ellipse;whiteSpace=wrap;html=1;" vertex="1" parent="1">
          <mxGeometry x="185" y="20" width="120" height="50" as="geometry" />
        </mxCell>
        <mxCell id="KOtAGe8Z_knaCR6Rn8nn-44" style="edgeStyle=orthogonalEdgeStyle;rounded=0;orthogonalLoop=1;jettySize=auto;html=1;exitX=0;exitY=0.5;exitDx=0;exitDy=0;entryX=1;entryY=0.5;entryDx=0;entryDy=0;" edge="1" parent="1" source="KOtAGe8Z_knaCR6Rn8nn-20" target="KOtAGe8Z_knaCR6Rn8nn-19">
          <mxGeometry relative="1" as="geometry" />
        </mxCell>
        <mxCell id="KOtAGe8Z_knaCR6Rn8nn-20" value="Modifier Activités" style="ellipse;whiteSpace=wrap;html=1;" vertex="1" parent="1">
          <mxGeometry x="540" y="-10" width="120" height="50" as="geometry" />
        </mxCell>
        <mxCell id="KOtAGe8Z_knaCR6Rn8nn-45" style="edgeStyle=orthogonalEdgeStyle;rounded=0;orthogonalLoop=1;jettySize=auto;html=1;exitX=0;exitY=0.5;exitDx=0;exitDy=0;entryX=1;entryY=0.5;entryDx=0;entryDy=0;" edge="1" parent="1" source="KOtAGe8Z_knaCR6Rn8nn-21" target="KOtAGe8Z_knaCR6Rn8nn-19">
          <mxGeometry relative="1" as="geometry" />
        </mxCell>
        <mxCell id="KOtAGe8Z_knaCR6Rn8nn-21" value="Supprimer Activites" style="ellipse;whiteSpace=wrap;html=1;" vertex="1" parent="1">
          <mxGeometry x="540" y="50" width="120" height="50" as="geometry" />
        </mxCell>
        <mxCell id="KOtAGe8Z_knaCR6Rn8nn-24" value="Consulter Agenda" style="ellipse;whiteSpace=wrap;html=1;" vertex="1" parent="1">
          <mxGeometry x="294" y="110" width="120" height="50" as="geometry" />
        </mxCell>
        <mxCell id="KOtAGe8Z_knaCR6Rn8nn-51" style="edgeStyle=orthogonalEdgeStyle;rounded=0;orthogonalLoop=1;jettySize=auto;html=1;exitX=1;exitY=0.5;exitDx=0;exitDy=0;entryX=0.5;entryY=1;entryDx=0;entryDy=0;" edge="1" parent="1" source="KOtAGe8Z_knaCR6Rn8nn-25" target="KOtAGe8Z_knaCR6Rn8nn-24">
          <mxGeometry relative="1" as="geometry" />
        </mxCell>
        <mxCell id="KOtAGe8Z_knaCR6Rn8nn-25" value="Inscrire les Activités des Chef services" style="ellipse;whiteSpace=wrap;html=1;" vertex="1" parent="1">
          <mxGeometry x="185" y="450" width="120" height="50" as="geometry" />
        </mxCell>
        <mxCell id="KOtAGe8Z_knaCR6Rn8nn-26" value="Gestion Agenda" style="ellipse;whiteSpace=wrap;html=1;" vertex="1" parent="1">
          <mxGeometry x="670" y="235" width="120" height="50" as="geometry" />
        </mxCell>
        <mxCell id="KOtAGe8Z_knaCR6Rn8nn-40" style="edgeStyle=orthogonalEdgeStyle;rounded=0;orthogonalLoop=1;jettySize=auto;html=1;exitX=0.5;exitY=0;exitDx=0;exitDy=0;" edge="1" parent="1" source="KOtAGe8Z_knaCR6Rn8nn-27" target="KOtAGe8Z_knaCR6Rn8nn-24">
          <mxGeometry relative="1" as="geometry" />
        </mxCell>
        <mxCell id="KOtAGe8Z_knaCR6Rn8nn-27" value="Inscrire les Activités des Employes" style="ellipse;whiteSpace=wrap;html=1;" vertex="1" parent="1">
          <mxGeometry x="185" y="265" width="120" height="50" as="geometry" />
        </mxCell>
        <mxCell id="KOtAGe8Z_knaCR6Rn8nn-29" style="edgeStyle=orthogonalEdgeStyle;rounded=0;orthogonalLoop=1;jettySize=auto;html=1;exitX=1;exitY=0.3333333333333333;exitDx=0;exitDy=0;exitPerimeter=0;entryX=0;entryY=0.5;entryDx=0;entryDy=0;" edge="1" parent="1" source="KOtAGe8Z_knaCR6Rn8nn-14" target="KOtAGe8Z_knaCR6Rn8nn-19">
          <mxGeometry relative="1" as="geometry" />
        </mxCell>
        <mxCell id="KOtAGe8Z_knaCR6Rn8nn-31" style="edgeStyle=orthogonalEdgeStyle;rounded=0;orthogonalLoop=1;jettySize=auto;html=1;exitX=0.5;exitY=0.5;exitDx=0;exitDy=0;exitPerimeter=0;" edge="1" parent="1" source="KOtAGe8Z_knaCR6Rn8nn-14" target="KOtAGe8Z_knaCR6Rn8nn-24">
          <mxGeometry relative="1" as="geometry" />
        </mxCell>
        <mxCell id="KOtAGe8Z_knaCR6Rn8nn-32" style="edgeStyle=orthogonalEdgeStyle;rounded=0;orthogonalLoop=1;jettySize=auto;html=1;exitX=0.5;exitY=0.5;exitDx=0;exitDy=0;exitPerimeter=0;" edge="1" parent="1" source="KOtAGe8Z_knaCR6Rn8nn-7" target="KOtAGe8Z_knaCR6Rn8nn-27">
          <mxGeometry relative="1" as="geometry" />
        </mxCell>
        <mxCell id="KOtAGe8Z_knaCR6Rn8nn-33" style="edgeStyle=orthogonalEdgeStyle;rounded=0;orthogonalLoop=1;jettySize=auto;html=1;exitX=0.5;exitY=0.5;exitDx=0;exitDy=0;exitPerimeter=0;" edge="1" parent="1" source="KOtAGe8Z_knaCR6Rn8nn-5" target="KOtAGe8Z_knaCR6Rn8nn-25">
          <mxGeometry relative="1" as="geometry" />
        </mxCell>
        <mxCell id="KOtAGe8Z_knaCR6Rn8nn-34" style="edgeStyle=orthogonalEdgeStyle;rounded=0;orthogonalLoop=1;jettySize=auto;html=1;exitX=0.5;exitY=0.5;exitDx=0;exitDy=0;exitPerimeter=0;" edge="1" parent="1" source="KOtAGe8Z_knaCR6Rn8nn-1" target="KOtAGe8Z_knaCR6Rn8nn-26">
          <mxGeometry relative="1" as="geometry" />
        </mxCell>
        <mxCell id="KOtAGe8Z_knaCR6Rn8nn-35" value="Supprimer Agenda" style="ellipse;whiteSpace=wrap;html=1;" vertex="1" parent="1">
          <mxGeometry x="530" y="190" width="120" height="50" as="geometry" />
        </mxCell>
        <mxCell id="KOtAGe8Z_knaCR6Rn8nn-37" value="Creer Agenda" style="ellipse;whiteSpace=wrap;html=1;" vertex="1" parent="1">
          <mxGeometry x="530" y="260" width="120" height="50" as="geometry" />
        </mxCell>
        <mxCell id="KOtAGe8Z_knaCR6Rn8nn-38" value="" style="shape=flexArrow;endArrow=classic;html=1;rounded=0;exitX=0;exitY=0.5;exitDx=0;exitDy=0;entryX=1;entryY=0.5;entryDx=0;entryDy=0;" edge="1" parent="1" source="KOtAGe8Z_knaCR6Rn8nn-26" target="KOtAGe8Z_knaCR6Rn8nn-35">
          <mxGeometry width="50" height="50" relative="1" as="geometry">
            <mxPoint x="354" y="270" as="sourcePoint" />
            <mxPoint x="408" y="260" as="targetPoint" />
          </mxGeometry>
        </mxCell>
        <mxCell id="KOtAGe8Z_knaCR6Rn8nn-39" value="" style="shape=flexArrow;endArrow=classic;html=1;rounded=0;exitX=0;exitY=0.5;exitDx=0;exitDy=0;entryX=0.95;entryY=0.64;entryDx=0;entryDy=0;entryPerimeter=0;" edge="1" parent="1" source="KOtAGe8Z_knaCR6Rn8nn-26" target="KOtAGe8Z_knaCR6Rn8nn-37">
          <mxGeometry width="50" height="50" relative="1" as="geometry">
            <mxPoint x="470" y="365" as="sourcePoint" />
            <mxPoint x="400" y="335" as="targetPoint" />
          </mxGeometry>
        </mxCell>
        <mxCell id="KOtAGe8Z_knaCR6Rn8nn-41" value="Include" style="text;html=1;align=center;verticalAlign=middle;whiteSpace=wrap;rounded=0;rotation=-90;" vertex="1" parent="1">
          <mxGeometry x="200" y="220" width="60" height="30" as="geometry" />
        </mxCell>
        <mxCell id="KOtAGe8Z_knaCR6Rn8nn-42" value="" style="shape=flexArrow;endArrow=classic;html=1;rounded=0;" edge="1" parent="1">
          <mxGeometry width="50" height="50" relative="1" as="geometry">
            <mxPoint x="70" y="220" as="sourcePoint" />
            <mxPoint x="70" y="150" as="targetPoint" />
          </mxGeometry>
        </mxCell>
        <mxCell id="KOtAGe8Z_knaCR6Rn8nn-47" value="Extend" style="text;html=1;align=center;verticalAlign=middle;whiteSpace=wrap;rounded=0;" vertex="1" parent="1">
          <mxGeometry x="440" y="-10" width="60" height="30" as="geometry" />
        </mxCell>
        <mxCell id="KOtAGe8Z_knaCR6Rn8nn-48" value="Extend" style="text;html=1;align=center;verticalAlign=middle;whiteSpace=wrap;rounded=0;" vertex="1" parent="1">
          <mxGeometry x="440" y="70" width="60" height="30" as="geometry" />
        </mxCell>
        <mxCell id="KOtAGe8Z_knaCR6Rn8nn-52" value="Include" style="text;html=1;align=center;verticalAlign=middle;whiteSpace=wrap;rounded=0;rotation=-90;" vertex="1" parent="1">
          <mxGeometry x="310" y="420" width="60" height="30" as="geometry" />
        </mxCell>
        <mxCell id="KOtAGe8Z_knaCR6Rn8nn-56" value="RH" style="group" vertex="1" connectable="0" parent="1">
          <mxGeometry x="180" y="720" width="60" height="100" as="geometry" />
        </mxCell>
        <mxCell id="KOtAGe8Z_knaCR6Rn8nn-57" value="Actor" style="shape=umlActor;verticalLabelPosition=bottom;verticalAlign=top;html=1;outlineConnect=0;" vertex="1" parent="KOtAGe8Z_knaCR6Rn8nn-56">
          <mxGeometry x="15" y="40" width="30" height="60" as="geometry" />
        </mxCell>
        <mxCell id="KOtAGe8Z_knaCR6Rn8nn-58" value="&lt;font face=&quot;Aptos, sans-serif&quot;&gt;&lt;span style=&quot;font-size: 16px;&quot;&gt;Systeme&lt;/span&gt;&lt;/font&gt;" style="rounded=1;whiteSpace=wrap;html=1;" vertex="1" parent="1">
          <mxGeometry x="460" y="750" width="120" height="60" as="geometry" />
        </mxCell>
        <mxCell id="KOtAGe8Z_knaCR6Rn8nn-59" value="" style="endArrow=none;dashed=1;html=1;dashPattern=1 3;strokeWidth=2;rounded=0;" edge="1" parent="1" source="KOtAGe8Z_knaCR6Rn8nn-74">
          <mxGeometry width="50" height="50" relative="1" as="geometry">
            <mxPoint x="210" y="850" as="sourcePoint" />
            <mxPoint x="210" y="1080" as="targetPoint" />
          </mxGeometry>
        </mxCell>
        <mxCell id="KOtAGe8Z_knaCR6Rn8nn-60" value="" style="endArrow=none;dashed=1;html=1;dashPattern=1 3;strokeWidth=2;rounded=0;exitX=0.5;exitY=1;exitDx=0;exitDy=0;" edge="1" parent="1">
          <mxGeometry width="50" height="50" relative="1" as="geometry">
            <mxPoint x="519.33" y="820" as="sourcePoint" />
            <mxPoint x="519" y="1070" as="targetPoint" />
          </mxGeometry>
        </mxCell>
        <mxCell id="KOtAGe8Z_knaCR6Rn8nn-62" value="" style="endArrow=none;dashed=1;html=1;dashPattern=1 3;strokeWidth=2;rounded=0;" edge="1" parent="1" target="KOtAGe8Z_knaCR6Rn8nn-61">
          <mxGeometry width="50" height="50" relative="1" as="geometry">
            <mxPoint x="210" y="850" as="sourcePoint" />
            <mxPoint x="210" y="1170" as="targetPoint" />
          </mxGeometry>
        </mxCell>
        <mxCell id="KOtAGe8Z_knaCR6Rn8nn-61" value="" style="rounded=1;whiteSpace=wrap;html=1;rotation=90;" vertex="1" parent="1">
          <mxGeometry x="175" y="900" width="70" height="30" as="geometry" />
        </mxCell>
        <mxCell id="KOtAGe8Z_knaCR6Rn8nn-90" style="edgeStyle=orthogonalEdgeStyle;rounded=0;orthogonalLoop=1;jettySize=auto;html=1;exitX=0.75;exitY=1;exitDx=0;exitDy=0;entryX=0.75;entryY=0;entryDx=0;entryDy=0;" edge="1" parent="1" source="KOtAGe8Z_knaCR6Rn8nn-63" target="KOtAGe8Z_knaCR6Rn8nn-61">
          <mxGeometry relative="1" as="geometry" />
        </mxCell>
        <mxCell id="KOtAGe8Z_knaCR6Rn8nn-63" value="" style="rounded=1;whiteSpace=wrap;html=1;rotation=90;" vertex="1" parent="1">
          <mxGeometry x="480" y="900" width="70" height="30" as="geometry" />
        </mxCell>
        <mxCell id="KOtAGe8Z_knaCR6Rn8nn-66" value="" style="endArrow=classic;html=1;rounded=0;exitX=0.25;exitY=0;exitDx=0;exitDy=0;entryX=0.25;entryY=1;entryDx=0;entryDy=0;" edge="1" parent="1" source="KOtAGe8Z_knaCR6Rn8nn-61" target="KOtAGe8Z_knaCR6Rn8nn-63">
          <mxGeometry width="50" height="50" relative="1" as="geometry">
            <mxPoint x="360" y="880" as="sourcePoint" />
            <mxPoint x="410" y="830" as="targetPoint" />
          </mxGeometry>
        </mxCell>
        <mxCell id="KOtAGe8Z_knaCR6Rn8nn-67" value="Consulter Agenda chef service" style="text;html=1;align=center;verticalAlign=middle;whiteSpace=wrap;rounded=0;" vertex="1" parent="1">
          <mxGeometry x="270" y="870" width="170" height="30" as="geometry" />
        </mxCell>
        <mxCell id="KOtAGe8Z_knaCR6Rn8nn-70" value="" style="endArrow=none;html=1;rounded=0;exitX=0.25;exitY=0;exitDx=0;exitDy=0;" edge="1" parent="1" source="KOtAGe8Z_knaCR6Rn8nn-63">
          <mxGeometry width="50" height="50" relative="1" as="geometry">
            <mxPoint x="360" y="890" as="sourcePoint" />
            <mxPoint x="610" y="900" as="targetPoint" />
          </mxGeometry>
        </mxCell>
        <mxCell id="KOtAGe8Z_knaCR6Rn8nn-71" value="" style="endArrow=none;html=1;rounded=0;" edge="1" parent="1">
          <mxGeometry width="50" height="50" relative="1" as="geometry">
            <mxPoint x="610" y="900" as="sourcePoint" />
            <mxPoint x="600" y="920" as="targetPoint" />
            <Array as="points" />
          </mxGeometry>
        </mxCell>
        <mxCell id="KOtAGe8Z_knaCR6Rn8nn-72" value="" style="endArrow=classic;html=1;rounded=0;entryX=0.5;entryY=0;entryDx=0;entryDy=0;" edge="1" parent="1" target="KOtAGe8Z_knaCR6Rn8nn-63">
          <mxGeometry width="50" height="50" relative="1" as="geometry">
            <mxPoint x="600" y="920" as="sourcePoint" />
            <mxPoint x="450" y="840" as="targetPoint" />
          </mxGeometry>
        </mxCell>
        <mxCell id="KOtAGe8Z_knaCR6Rn8nn-75" value="" style="endArrow=none;dashed=1;html=1;dashPattern=1 3;strokeWidth=2;rounded=0;" edge="1" parent="1" source="KOtAGe8Z_knaCR6Rn8nn-61" target="KOtAGe8Z_knaCR6Rn8nn-74">
          <mxGeometry width="50" height="50" relative="1" as="geometry">
            <mxPoint x="210" y="950" as="sourcePoint" />
            <mxPoint x="210" y="1170" as="targetPoint" />
          </mxGeometry>
        </mxCell>
        <mxCell id="KOtAGe8Z_knaCR6Rn8nn-77" style="edgeStyle=orthogonalEdgeStyle;rounded=0;orthogonalLoop=1;jettySize=auto;html=1;exitX=0.25;exitY=0;exitDx=0;exitDy=0;entryX=0.381;entryY=0.878;entryDx=0;entryDy=0;entryPerimeter=0;" edge="1" parent="1" source="KOtAGe8Z_knaCR6Rn8nn-74" target="KOtAGe8Z_knaCR6Rn8nn-78">
          <mxGeometry relative="1" as="geometry">
            <mxPoint x="480" y="1008" as="targetPoint" />
          </mxGeometry>
        </mxCell>
        <mxCell id="KOtAGe8Z_knaCR6Rn8nn-74" value="" style="rounded=1;whiteSpace=wrap;html=1;rotation=90;" vertex="1" parent="1">
          <mxGeometry x="175" y="1010" width="70" height="30" as="geometry" />
        </mxCell>
        <mxCell id="KOtAGe8Z_knaCR6Rn8nn-85" style="edgeStyle=orthogonalEdgeStyle;rounded=0;orthogonalLoop=1;jettySize=auto;html=1;exitX=0.895;exitY=-0.144;exitDx=0;exitDy=0;exitPerimeter=0;entryX=0.5;entryY=1;entryDx=0;entryDy=0;" edge="1" parent="1" source="KOtAGe8Z_knaCR6Rn8nn-78" target="KOtAGe8Z_knaCR6Rn8nn-84">
          <mxGeometry relative="1" as="geometry">
            <mxPoint x="730" y="1040" as="targetPoint" />
          </mxGeometry>
        </mxCell>
        <mxCell id="KOtAGe8Z_knaCR6Rn8nn-78" value="" style="rounded=1;whiteSpace=wrap;html=1;rotation=90;" vertex="1" parent="1">
          <mxGeometry x="485" y="1000" width="70" height="30" as="geometry" />
        </mxCell>
        <mxCell id="KOtAGe8Z_knaCR6Rn8nn-79" value="Inscrire Activité" style="text;html=1;align=center;verticalAlign=middle;whiteSpace=wrap;rounded=0;" vertex="1" parent="1">
          <mxGeometry x="270" y="980" width="170" height="30" as="geometry" />
        </mxCell>
        <mxCell id="KOtAGe8Z_knaCR6Rn8nn-80" value="Chef service" style="group" vertex="1" connectable="0" parent="1">
          <mxGeometry x="730" y="720" width="60" height="100" as="geometry" />
        </mxCell>
        <mxCell id="KOtAGe8Z_knaCR6Rn8nn-81" value="Actor" style="shape=umlActor;verticalLabelPosition=bottom;verticalAlign=top;html=1;outlineConnect=0;" vertex="1" parent="KOtAGe8Z_knaCR6Rn8nn-80">
          <mxGeometry x="15" y="40" width="30" height="60" as="geometry" />
        </mxCell>
        <mxCell id="KOtAGe8Z_knaCR6Rn8nn-84" value="" style="rounded=1;whiteSpace=wrap;html=1;rotation=90;" vertex="1" parent="1">
          <mxGeometry x="725" y="1020" width="70" height="30" as="geometry" />
        </mxCell>
        <mxCell id="KOtAGe8Z_knaCR6Rn8nn-86" value="Afficher Activité" style="text;html=1;align=center;verticalAlign=middle;whiteSpace=wrap;rounded=0;" vertex="1" parent="1">
          <mxGeometry x="540" y="1040" width="170" height="30" as="geometry" />
        </mxCell>
        <mxCell id="KOtAGe8Z_knaCR6Rn8nn-87" value="" style="endArrow=none;dashed=1;html=1;rounded=0;exitX=0.75;exitY=1;exitDx=0;exitDy=0;entryX=0.638;entryY=0.133;entryDx=0;entryDy=0;entryPerimeter=0;" edge="1" parent="1" source="KOtAGe8Z_knaCR6Rn8nn-78" target="KOtAGe8Z_knaCR6Rn8nn-74">
          <mxGeometry width="50" height="50" relative="1" as="geometry">
            <mxPoint x="511" y="934" as="sourcePoint" />
            <mxPoint x="231" y="934" as="targetPoint" />
          </mxGeometry>
        </mxCell>
        <mxCell id="KOtAGe8Z_knaCR6Rn8nn-88" value="Message de confirmation" style="text;html=1;align=center;verticalAlign=middle;whiteSpace=wrap;rounded=0;" vertex="1" parent="1">
          <mxGeometry x="270" y="1030" width="170" height="30" as="geometry" />
        </mxCell>
        <mxCell id="KOtAGe8Z_knaCR6Rn8nn-89" value="Afficher Agenda" style="text;html=1;align=center;verticalAlign=middle;whiteSpace=wrap;rounded=0;" vertex="1" parent="1">
          <mxGeometry x="270" y="930" width="170" height="30" as="geometry" />
        </mxCell>
        <mxCell id="KOtAGe8Z_knaCR6Rn8nn-92" value="" style="endArrow=none;dashed=1;html=1;rounded=0;" edge="1" parent="1">
          <mxGeometry width="50" height="50" relative="1" as="geometry">
            <mxPoint x="760" y="850" as="sourcePoint" />
            <mxPoint x="760" y="1100" as="targetPoint" />
          </mxGeometry>
        </mxCell>
        <mxCell id="KOtAGe8Z_knaCR6Rn8nn-109" value="" style="edgeStyle=orthogonalEdgeStyle;rounded=0;orthogonalLoop=1;jettySize=auto;html=1;entryX=0.5;entryY=0;entryDx=0;entryDy=0;" edge="1" parent="1" source="KOtAGe8Z_knaCR6Rn8nn-95" target="KOtAGe8Z_knaCR6Rn8nn-99">
          <mxGeometry relative="1" as="geometry" />
        </mxCell>
        <mxCell id="KOtAGe8Z_knaCR6Rn8nn-95" value="Employe" style="swimlane;fontStyle=1;align=center;verticalAlign=top;childLayout=stackLayout;horizontal=1;startSize=26;horizontalStack=0;resizeParent=1;resizeParentMax=0;resizeLast=0;collapsible=1;marginBottom=0;whiteSpace=wrap;html=1;" vertex="1" parent="1">
          <mxGeometry x="50" y="-627" width="160" height="144" as="geometry" />
        </mxCell>
        <mxCell id="KOtAGe8Z_knaCR6Rn8nn-96" value="matricule:int&lt;div&gt;nom:string&lt;/div&gt;&lt;div&gt;prenom:string&lt;/div&gt;&lt;div&gt;email:string&lt;/div&gt;" style="text;strokeColor=none;fillColor=none;align=left;verticalAlign=top;spacingLeft=4;spacingRight=4;overflow=hidden;rotatable=0;points=[[0,0.5],[1,0.5]];portConstraint=eastwest;whiteSpace=wrap;html=1;" vertex="1" parent="KOtAGe8Z_knaCR6Rn8nn-95">
          <mxGeometry y="26" width="160" height="84" as="geometry" />
        </mxCell>
        <mxCell id="KOtAGe8Z_knaCR6Rn8nn-97" value="" style="line;strokeWidth=1;fillColor=none;align=left;verticalAlign=middle;spacingTop=-1;spacingLeft=3;spacingRight=3;rotatable=0;labelPosition=right;points=[];portConstraint=eastwest;strokeColor=inherit;" vertex="1" parent="KOtAGe8Z_knaCR6Rn8nn-95">
          <mxGeometry y="110" width="160" height="8" as="geometry" />
        </mxCell>
        <mxCell id="KOtAGe8Z_knaCR6Rn8nn-98" value="+ method(type): type" style="text;strokeColor=none;fillColor=none;align=left;verticalAlign=top;spacingLeft=4;spacingRight=4;overflow=hidden;rotatable=0;points=[[0,0.5],[1,0.5]];portConstraint=eastwest;whiteSpace=wrap;html=1;" vertex="1" parent="KOtAGe8Z_knaCR6Rn8nn-95">
          <mxGeometry y="118" width="160" height="26" as="geometry" />
        </mxCell>
        <mxCell id="KOtAGe8Z_knaCR6Rn8nn-99" value="Service" style="swimlane;fontStyle=1;align=center;verticalAlign=top;childLayout=stackLayout;horizontal=1;startSize=26;horizontalStack=0;resizeParent=1;resizeParentMax=0;resizeLast=0;collapsible=1;marginBottom=0;whiteSpace=wrap;html=1;" vertex="1" parent="1">
          <mxGeometry x="50" y="-340" width="160" height="144" as="geometry" />
        </mxCell>
        <mxCell id="KOtAGe8Z_knaCR6Rn8nn-100" value="code:int&lt;div&gt;nom:string&lt;/div&gt;" style="text;strokeColor=none;fillColor=none;align=left;verticalAlign=top;spacingLeft=4;spacingRight=4;overflow=hidden;rotatable=0;points=[[0,0.5],[1,0.5]];portConstraint=eastwest;whiteSpace=wrap;html=1;" vertex="1" parent="KOtAGe8Z_knaCR6Rn8nn-99">
          <mxGeometry y="26" width="160" height="84" as="geometry" />
        </mxCell>
        <mxCell id="KOtAGe8Z_knaCR6Rn8nn-101" value="" style="line;strokeWidth=1;fillColor=none;align=left;verticalAlign=middle;spacingTop=-1;spacingLeft=3;spacingRight=3;rotatable=0;labelPosition=right;points=[];portConstraint=eastwest;strokeColor=inherit;" vertex="1" parent="KOtAGe8Z_knaCR6Rn8nn-99">
          <mxGeometry y="110" width="160" height="8" as="geometry" />
        </mxCell>
        <mxCell id="KOtAGe8Z_knaCR6Rn8nn-102" value="+ method(type): type" style="text;strokeColor=none;fillColor=none;align=left;verticalAlign=top;spacingLeft=4;spacingRight=4;overflow=hidden;rotatable=0;points=[[0,0.5],[1,0.5]];portConstraint=eastwest;whiteSpace=wrap;html=1;" vertex="1" parent="KOtAGe8Z_knaCR6Rn8nn-99">
          <mxGeometry y="118" width="160" height="26" as="geometry" />
        </mxCell>
        <mxCell id="KOtAGe8Z_knaCR6Rn8nn-104" value="" style="endArrow=diamondThin;endFill=1;endSize=24;html=1;rounded=0;entryX=1;entryY=0.5;entryDx=0;entryDy=0;exitX=0.04;exitY=0.167;exitDx=0;exitDy=0;exitPerimeter=0;" edge="1" parent="1" source="KOtAGe8Z_knaCR6Rn8nn-107" target="KOtAGe8Z_knaCR6Rn8nn-96">
          <mxGeometry width="160" relative="1" as="geometry">
            <mxPoint x="310" y="-559" as="sourcePoint" />
            <mxPoint x="560" y="-350" as="targetPoint" />
          </mxGeometry>
        </mxCell>
        <mxCell id="KOtAGe8Z_knaCR6Rn8nn-110" style="edgeStyle=orthogonalEdgeStyle;rounded=0;orthogonalLoop=1;jettySize=auto;html=1;entryX=1;entryY=0.5;entryDx=0;entryDy=0;" edge="1" parent="1" source="KOtAGe8Z_knaCR6Rn8nn-105" target="KOtAGe8Z_knaCR6Rn8nn-100">
          <mxGeometry relative="1" as="geometry" />
        </mxCell>
        <mxCell id="KOtAGe8Z_knaCR6Rn8nn-105" value="Chef service" style="swimlane;fontStyle=1;align=center;verticalAlign=top;childLayout=stackLayout;horizontal=1;startSize=26;horizontalStack=0;resizeParent=1;resizeParentMax=0;resizeLast=0;collapsible=1;marginBottom=0;whiteSpace=wrap;html=1;" vertex="1" parent="1">
          <mxGeometry x="294" y="-584" width="160" height="60" as="geometry" />
        </mxCell>
        <mxCell id="KOtAGe8Z_knaCR6Rn8nn-107" value="" style="line;strokeWidth=1;fillColor=none;align=left;verticalAlign=middle;spacingTop=-1;spacingLeft=3;spacingRight=3;rotatable=0;labelPosition=right;points=[];portConstraint=eastwest;strokeColor=inherit;" vertex="1" parent="KOtAGe8Z_knaCR6Rn8nn-105">
          <mxGeometry y="26" width="160" height="8" as="geometry" />
        </mxCell>
        <mxCell id="KOtAGe8Z_knaCR6Rn8nn-108" value="+ method(type): type" style="text;strokeColor=none;fillColor=none;align=left;verticalAlign=top;spacingLeft=4;spacingRight=4;overflow=hidden;rotatable=0;points=[[0,0.5],[1,0.5]];portConstraint=eastwest;whiteSpace=wrap;html=1;" vertex="1" parent="KOtAGe8Z_knaCR6Rn8nn-105">
          <mxGeometry y="34" width="160" height="26" as="geometry" />
        </mxCell>
        <mxCell id="KOtAGe8Z_knaCR6Rn8nn-111" value="Travaille" style="text;html=1;align=center;verticalAlign=middle;whiteSpace=wrap;rounded=0;rotation=-90;" vertex="1" parent="1">
          <mxGeometry x="80" y="-420" width="60" height="30" as="geometry" />
        </mxCell>
        <mxCell id="KOtAGe8Z_knaCR6Rn8nn-112" value="Possède" style="text;html=1;align=center;verticalAlign=middle;whiteSpace=wrap;rounded=0;rotation=-90;" vertex="1" parent="1">
          <mxGeometry x="325" y="-410" width="60" height="30" as="geometry" />
        </mxCell>
        <mxCell id="KOtAGe8Z_knaCR6Rn8nn-117" style="edgeStyle=orthogonalEdgeStyle;rounded=0;orthogonalLoop=1;jettySize=auto;html=1;entryX=0.5;entryY=0;entryDx=0;entryDy=0;" edge="1" parent="1" source="KOtAGe8Z_knaCR6Rn8nn-113" target="KOtAGe8Z_knaCR6Rn8nn-95">
          <mxGeometry relative="1" as="geometry" />
        </mxCell>
        <mxCell id="KOtAGe8Z_knaCR6Rn8nn-144" style="edgeStyle=orthogonalEdgeStyle;rounded=0;orthogonalLoop=1;jettySize=auto;html=1;" edge="1" parent="1" source="KOtAGe8Z_knaCR6Rn8nn-113" target="KOtAGe8Z_knaCR6Rn8nn-120">
          <mxGeometry relative="1" as="geometry" />
        </mxCell>
        <mxCell id="KOtAGe8Z_knaCR6Rn8nn-113" value="Agenda" style="swimlane;fontStyle=1;align=center;verticalAlign=top;childLayout=stackLayout;horizontal=1;startSize=26;horizontalStack=0;resizeParent=1;resizeParentMax=0;resizeLast=0;collapsible=1;marginBottom=0;whiteSpace=wrap;html=1;" vertex="1" parent="1">
          <mxGeometry x="50" y="-940" width="160" height="144" as="geometry" />
        </mxCell>
        <mxCell id="KOtAGe8Z_knaCR6Rn8nn-114" value="code:int&lt;div&gt;DateCreating;Datetime&lt;/div&gt;" style="text;strokeColor=none;fillColor=none;align=left;verticalAlign=top;spacingLeft=4;spacingRight=4;overflow=hidden;rotatable=0;points=[[0,0.5],[1,0.5]];portConstraint=eastwest;whiteSpace=wrap;html=1;" vertex="1" parent="KOtAGe8Z_knaCR6Rn8nn-113">
          <mxGeometry y="26" width="160" height="84" as="geometry" />
        </mxCell>
        <mxCell id="KOtAGe8Z_knaCR6Rn8nn-115" value="" style="line;strokeWidth=1;fillColor=none;align=left;verticalAlign=middle;spacingTop=-1;spacingLeft=3;spacingRight=3;rotatable=0;labelPosition=right;points=[];portConstraint=eastwest;strokeColor=inherit;" vertex="1" parent="KOtAGe8Z_knaCR6Rn8nn-113">
          <mxGeometry y="110" width="160" height="8" as="geometry" />
        </mxCell>
        <mxCell id="KOtAGe8Z_knaCR6Rn8nn-116" value="+ method(type): type" style="text;strokeColor=none;fillColor=none;align=left;verticalAlign=top;spacingLeft=4;spacingRight=4;overflow=hidden;rotatable=0;points=[[0,0.5],[1,0.5]];portConstraint=eastwest;whiteSpace=wrap;html=1;" vertex="1" parent="KOtAGe8Z_knaCR6Rn8nn-113">
          <mxGeometry y="118" width="160" height="26" as="geometry" />
        </mxCell>
        <mxCell id="KOtAGe8Z_knaCR6Rn8nn-118" value="Possède" style="text;html=1;align=center;verticalAlign=middle;whiteSpace=wrap;rounded=0;rotation=-90;" vertex="1" parent="1">
          <mxGeometry x="80" y="-730" width="60" height="30" as="geometry" />
        </mxCell>
        <mxCell id="KOtAGe8Z_knaCR6Rn8nn-119" value="Activite" style="swimlane;fontStyle=1;align=center;verticalAlign=top;childLayout=stackLayout;horizontal=1;startSize=26;horizontalStack=0;resizeParent=1;resizeParentMax=0;resizeLast=0;collapsible=1;marginBottom=0;whiteSpace=wrap;html=1;" vertex="1" parent="1">
          <mxGeometry x="400" y="-890" width="160" height="144" as="geometry" />
        </mxCell>
        <mxCell id="KOtAGe8Z_knaCR6Rn8nn-120" value="type:string&lt;div&gt;heureDebut:datetime&lt;/div&gt;&lt;div&gt;heureFin:datetime&lt;/div&gt;&lt;div&gt;description:string&lt;/div&gt;" style="text;strokeColor=none;fillColor=none;align=left;verticalAlign=top;spacingLeft=4;spacingRight=4;overflow=hidden;rotatable=0;points=[[0,0.5],[1,0.5]];portConstraint=eastwest;whiteSpace=wrap;html=1;" vertex="1" parent="KOtAGe8Z_knaCR6Rn8nn-119">
          <mxGeometry y="26" width="160" height="84" as="geometry" />
        </mxCell>
        <mxCell id="KOtAGe8Z_knaCR6Rn8nn-121" value="" style="line;strokeWidth=1;fillColor=none;align=left;verticalAlign=middle;spacingTop=-1;spacingLeft=3;spacingRight=3;rotatable=0;labelPosition=right;points=[];portConstraint=eastwest;strokeColor=inherit;" vertex="1" parent="KOtAGe8Z_knaCR6Rn8nn-119">
          <mxGeometry y="110" width="160" height="8" as="geometry" />
        </mxCell>
        <mxCell id="KOtAGe8Z_knaCR6Rn8nn-122" value="+ SetVisibilite(boolean)&amp;nbsp;" style="text;strokeColor=none;fillColor=none;align=left;verticalAlign=top;spacingLeft=4;spacingRight=4;overflow=hidden;rotatable=0;points=[[0,0.5],[1,0.5]];portConstraint=eastwest;whiteSpace=wrap;html=1;" vertex="1" parent="KOtAGe8Z_knaCR6Rn8nn-119">
          <mxGeometry y="118" width="160" height="26" as="geometry" />
        </mxCell>
        <mxCell id="KOtAGe8Z_knaCR6Rn8nn-125" value="" style="shape=flexArrow;endArrow=classic;html=1;rounded=0;exitX=1.015;exitY=0.31;exitDx=0;exitDy=0;exitPerimeter=0;" edge="1" parent="1" source="KOtAGe8Z_knaCR6Rn8nn-120">
          <mxGeometry width="50" height="50" relative="1" as="geometry">
            <mxPoint x="460" y="-770" as="sourcePoint" />
            <mxPoint x="670" y="-890" as="targetPoint" />
          </mxGeometry>
        </mxCell>
        <mxCell id="KOtAGe8Z_knaCR6Rn8nn-126" value="" style="shape=flexArrow;endArrow=classic;html=1;rounded=0;exitX=1;exitY=0.5;exitDx=0;exitDy=0;" edge="1" parent="1" source="KOtAGe8Z_knaCR6Rn8nn-120">
          <mxGeometry width="50" height="50" relative="1" as="geometry">
            <mxPoint x="572" y="-828" as="sourcePoint" />
            <mxPoint x="680" y="-780" as="targetPoint" />
          </mxGeometry>
        </mxCell>
        <mxCell id="KOtAGe8Z_knaCR6Rn8nn-135" value="Activite Unique" style="swimlane;fontStyle=1;align=center;verticalAlign=top;childLayout=stackLayout;horizontal=1;startSize=26;horizontalStack=0;resizeParent=1;resizeParentMax=0;resizeLast=0;collapsible=1;marginBottom=0;whiteSpace=wrap;html=1;" vertex="1" parent="1">
          <mxGeometry x="701" y="-960" width="160" height="122" as="geometry" />
        </mxCell>
        <mxCell id="KOtAGe8Z_knaCR6Rn8nn-136" value="Date Realisation:datetime" style="text;strokeColor=none;fillColor=none;align=left;verticalAlign=top;spacingLeft=4;spacingRight=4;overflow=hidden;rotatable=0;points=[[0,0.5],[1,0.5]];portConstraint=eastwest;whiteSpace=wrap;html=1;" vertex="1" parent="KOtAGe8Z_knaCR6Rn8nn-135">
          <mxGeometry y="26" width="160" height="34" as="geometry" />
        </mxCell>
        <mxCell id="KOtAGe8Z_knaCR6Rn8nn-137" value="" style="line;strokeWidth=1;fillColor=none;align=left;verticalAlign=middle;spacingTop=-1;spacingLeft=3;spacingRight=3;rotatable=0;labelPosition=right;points=[];portConstraint=eastwest;strokeColor=inherit;" vertex="1" parent="KOtAGe8Z_knaCR6Rn8nn-135">
          <mxGeometry y="60" width="160" height="8" as="geometry" />
        </mxCell>
        <mxCell id="KOtAGe8Z_knaCR6Rn8nn-138" value="+ method(type): type" style="text;strokeColor=none;fillColor=none;align=left;verticalAlign=top;spacingLeft=4;spacingRight=4;overflow=hidden;rotatable=0;points=[[0,0.5],[1,0.5]];portConstraint=eastwest;whiteSpace=wrap;html=1;" vertex="1" parent="KOtAGe8Z_knaCR6Rn8nn-135">
          <mxGeometry y="68" width="160" height="54" as="geometry" />
        </mxCell>
        <mxCell id="KOtAGe8Z_knaCR6Rn8nn-139" value="Activite Periodique" style="swimlane;fontStyle=1;align=center;verticalAlign=top;childLayout=stackLayout;horizontal=1;startSize=26;horizontalStack=0;resizeParent=1;resizeParentMax=0;resizeLast=0;collapsible=1;marginBottom=0;whiteSpace=wrap;html=1;" vertex="1" parent="1">
          <mxGeometry x="700" y="-810" width="160" height="122" as="geometry" />
        </mxCell>
        <mxCell id="KOtAGe8Z_knaCR6Rn8nn-140" value="JourConcerne:datetime" style="text;strokeColor=none;fillColor=none;align=left;verticalAlign=top;spacingLeft=4;spacingRight=4;overflow=hidden;rotatable=0;points=[[0,0.5],[1,0.5]];portConstraint=eastwest;whiteSpace=wrap;html=1;" vertex="1" parent="KOtAGe8Z_knaCR6Rn8nn-139">
          <mxGeometry y="26" width="160" height="34" as="geometry" />
        </mxCell>
        <mxCell id="KOtAGe8Z_knaCR6Rn8nn-141" value="" style="line;strokeWidth=1;fillColor=none;align=left;verticalAlign=middle;spacingTop=-1;spacingLeft=3;spacingRight=3;rotatable=0;labelPosition=right;points=[];portConstraint=eastwest;strokeColor=inherit;" vertex="1" parent="KOtAGe8Z_knaCR6Rn8nn-139">
          <mxGeometry y="60" width="160" height="8" as="geometry" />
        </mxCell>
        <mxCell id="KOtAGe8Z_knaCR6Rn8nn-142" value="+ method(type): type" style="text;strokeColor=none;fillColor=none;align=left;verticalAlign=top;spacingLeft=4;spacingRight=4;overflow=hidden;rotatable=0;points=[[0,0.5],[1,0.5]];portConstraint=eastwest;whiteSpace=wrap;html=1;" vertex="1" parent="KOtAGe8Z_knaCR6Rn8nn-139">
          <mxGeometry y="68" width="160" height="54" as="geometry" />
        </mxCell>
      </root>
    </mxGraphModel>
  </diagram>
</mxfile>
